<svg width="240" height="240" viewBox="0 0 240 240" fill="none" xmlns="http://www.w3.org/2000/svg">
<rect x="89" y="98" width="36" height="36" fill="#30116C"/>
<path d="M124.51 120.273C124.51 121.304 124.315 122.181 123.924 122.904C123.536 123.627 123.007 124.18 122.336 124.561C121.668 124.94 120.917 125.129 120.083 125.129C119.243 125.129 118.489 124.938 117.821 124.557C117.153 124.175 116.625 123.623 116.237 122.9C115.849 122.176 115.656 121.301 115.656 120.273C115.656 119.242 115.849 118.365 116.237 117.641C116.625 116.918 117.153 116.367 117.821 115.989C118.489 115.607 119.243 115.416 120.083 115.416C120.917 115.416 121.668 115.607 122.336 115.989C123.007 116.367 123.536 116.918 123.924 117.641C124.315 118.365 124.51 119.242 124.51 120.273ZM122.483 120.273C122.483 119.605 122.383 119.042 122.183 118.583C121.986 118.125 121.708 117.777 121.348 117.54C120.988 117.303 120.566 117.184 120.083 117.184C119.6 117.184 119.178 117.303 118.818 117.54C118.458 117.777 118.178 118.125 117.978 118.583C117.781 119.042 117.682 119.605 117.682 120.273C117.682 120.941 117.781 121.504 117.978 121.962C118.178 122.421 118.458 122.769 118.818 123.006C119.178 123.243 119.6 123.361 120.083 123.361C120.566 123.361 120.988 123.243 121.348 123.006C121.708 122.769 121.986 122.421 122.183 121.962C122.383 121.504 122.483 120.941 122.483 120.273ZM125.991 115.545H128.456L131.06 121.898H131.17L133.774 115.545H136.239V125H134.3V118.846H134.222L131.775 124.954H130.455L128.008 118.823H127.93V125H125.991V115.545ZM143.726 115.545H145.725V121.685C145.725 122.375 145.56 122.978 145.231 123.495C144.905 124.012 144.448 124.415 143.86 124.705C143.272 124.991 142.587 125.134 141.806 125.134C141.021 125.134 140.334 124.991 139.747 124.705C139.159 124.415 138.702 124.012 138.376 123.495C138.049 122.978 137.886 122.375 137.886 121.685V115.545H139.885V121.515C139.885 121.875 139.964 122.195 140.121 122.475C140.281 122.755 140.505 122.975 140.795 123.135C141.084 123.295 141.421 123.375 141.806 123.375C142.193 123.375 142.53 123.295 142.817 123.135C143.106 122.975 143.329 122.755 143.486 122.475C143.646 122.195 143.726 121.875 143.726 121.515V115.545Z" fill="white"/>
<path d="M112.324 115H110.989C110.889 114.503 110.709 114.044 110.449 113.622C110.193 113.196 109.871 112.824 109.483 112.507C109.095 112.19 108.654 111.944 108.162 111.768C107.67 111.593 107.137 111.506 106.564 111.506C105.645 111.506 104.807 111.745 104.05 112.223C103.297 112.701 102.693 113.404 102.239 114.332C101.789 115.256 101.564 116.387 101.564 117.727C101.564 119.077 101.789 120.213 102.239 121.136C102.693 122.06 103.297 122.76 104.05 123.239C104.807 123.712 105.645 123.949 106.564 123.949C107.137 123.949 107.67 123.861 108.162 123.686C108.654 123.511 109.095 123.267 109.483 122.955C109.871 122.637 110.193 122.266 110.449 121.839C110.709 121.413 110.889 120.952 110.989 120.455H112.324C112.205 121.122 111.983 121.745 111.656 122.322C111.334 122.895 110.922 123.397 110.42 123.828C109.923 124.259 109.35 124.595 108.702 124.837C108.053 125.078 107.34 125.199 106.564 125.199C105.342 125.199 104.258 124.893 103.311 124.283C102.364 123.667 101.621 122.801 101.081 121.683C100.546 120.566 100.278 119.247 100.278 117.727C100.278 116.207 100.546 114.889 101.081 113.771C101.621 112.654 102.364 111.79 103.311 111.179C104.258 110.563 105.342 110.256 106.564 110.256C107.34 110.256 108.053 110.376 108.702 110.618C109.35 110.855 109.923 111.191 110.42 111.626C110.922 112.057 111.334 112.559 111.656 113.132C111.983 113.705 112.205 114.328 112.324 115Z" fill="white"/>
<path d="M101.164 132.855H99.1417C99.1048 132.594 99.0294 132.362 98.9155 132.158C98.8016 131.952 98.6554 131.777 98.4769 131.632C98.2984 131.487 98.0922 131.377 97.8583 131.3C97.6275 131.223 97.3767 131.184 97.1058 131.184C96.6165 131.184 96.1902 131.306 95.8271 131.549C95.4639 131.789 95.1823 132.14 94.9822 132.602C94.7822 133.06 94.6822 133.617 94.6822 134.273C94.6822 134.947 94.7822 135.513 94.9822 135.972C95.1854 136.43 95.4685 136.776 95.8317 137.01C96.1948 137.244 96.6149 137.361 97.092 137.361C97.3597 137.361 97.6075 137.326 97.8352 137.255C98.0661 137.184 98.2707 137.081 98.4492 136.946C98.6277 136.807 98.7755 136.639 98.8924 136.442C99.0124 136.246 99.0955 136.021 99.1417 135.768L101.164 135.778C101.111 136.212 100.981 136.63 100.771 137.033C100.565 137.433 100.287 137.792 99.9357 138.109C99.5879 138.423 99.1725 138.672 98.6893 138.857C98.2092 139.038 97.666 139.129 97.0597 139.129C96.2164 139.129 95.4624 138.938 94.7976 138.557C94.1359 138.175 93.6127 137.623 93.228 136.9C92.8464 136.176 92.6555 135.301 92.6555 134.273C92.6555 133.242 92.8494 132.365 93.2372 131.641C93.625 130.918 94.1513 130.367 94.8161 129.989C95.4808 129.607 96.2287 129.416 97.0597 129.416C97.6075 129.416 98.1153 129.493 98.5831 129.647C99.054 129.801 99.471 130.026 99.8342 130.321C100.197 130.613 100.493 130.972 100.721 131.397C100.951 131.821 101.099 132.308 101.164 132.855ZM104.049 139H101.907L105.171 129.545H107.747L111.006 139H108.864L106.496 131.706H106.422L104.049 139ZM103.915 135.284H108.975V136.844H103.915V135.284ZM112.144 139V129.545H115.874C116.588 129.545 117.198 129.673 117.702 129.929C118.21 130.181 118.596 130.54 118.861 131.004C119.129 131.466 119.263 132.009 119.263 132.634C119.263 133.262 119.127 133.802 118.856 134.254C118.586 134.704 118.193 135.048 117.679 135.288C117.168 135.528 116.55 135.648 115.823 135.648H113.326V134.042H115.5C115.882 134.042 116.199 133.99 116.451 133.885C116.704 133.78 116.891 133.623 117.014 133.414C117.141 133.205 117.204 132.945 117.204 132.634C117.204 132.32 117.141 132.055 117.014 131.84C116.891 131.624 116.702 131.461 116.447 131.35C116.194 131.237 115.876 131.18 115.491 131.18H114.143V139H112.144ZM117.25 134.697L119.6 139H117.393L115.094 134.697H117.25ZM129.363 134.273C129.363 135.304 129.168 136.181 128.777 136.904C128.389 137.627 127.86 138.18 127.189 138.561C126.521 138.94 125.77 139.129 124.936 139.129C124.096 139.129 123.342 138.938 122.674 138.557C122.006 138.175 121.479 137.623 121.091 136.9C120.703 136.176 120.509 135.301 120.509 134.273C120.509 133.242 120.703 132.365 121.091 131.641C121.479 130.918 122.006 130.367 122.674 129.989C123.342 129.607 124.096 129.416 124.936 129.416C125.77 129.416 126.521 129.607 127.189 129.989C127.86 130.367 128.389 130.918 128.777 131.641C129.168 132.365 129.363 133.242 129.363 134.273ZM127.337 134.273C127.337 133.605 127.237 133.042 127.037 132.583C126.84 132.125 126.561 131.777 126.201 131.54C125.841 131.303 125.419 131.184 124.936 131.184C124.453 131.184 124.031 131.303 123.671 131.54C123.311 131.777 123.031 132.125 122.831 132.583C122.634 133.042 122.536 133.605 122.536 134.273C122.536 134.941 122.634 135.504 122.831 135.962C123.031 136.421 123.311 136.769 123.671 137.006C124.031 137.243 124.453 137.361 124.936 137.361C125.419 137.361 125.841 137.243 126.201 137.006C126.561 136.769 126.84 136.421 127.037 135.962C127.237 135.504 127.337 134.941 127.337 134.273ZM138.752 129.545V139H137.026L132.912 133.049H132.843V139H130.844V129.545H132.598L136.679 135.491H136.763V129.545H138.752ZM142.033 139H139.891L143.155 129.545H145.731L148.99 139H146.848L144.48 131.706H144.406L142.033 139ZM141.9 135.284H146.959V136.844H141.9V135.284Z" fill="white"/>
</svg>
